<?xml version="1.0" standalone="no"?>
<!DOCTYPE svg PUBLIC "-//W3C//DTD SVG 20010904//EN"
 "http://www.w3.org/TR/2001/REC-SVG-20010904/DTD/svg10.dtd">
<svg version="1.0" xmlns="http://www.w3.org/2000/svg"
 width="1024.000000pt" height="1024.000000pt" viewBox="0 0 1024.000000 1024.000000"
 preserveAspectRatio="xMidYMid meet">
<metadata>
Created by potrace 1.14, written by Peter Selinger 2001-2017
</metadata>
<g transform="translate(0.000000,1024.000000) scale(0.100000,-0.100000)"
fill="#000000" stroke="none">
<path d="M9013 6749 l-33 -10 0 -1509 0 -1510 103 0 c67 0 109 4 120 13 16 11
17 111 15 1517 l-3 1505 -85 2 c-47 1 -100 -3 -117 -8z"/>
<path d="M7063 6663 c-16 -6 -17 -163 -3 -301 30 -277 34 -304 48 -310 8 -3
39 -1 71 4 l56 9 12 60 c17 87 43 369 43 464 l0 81 -107 -1 c-60 0 -114 -3
-120 -6z"/>
<path d="M3605 6506 c-80 -22 -85 -35 -85 -200 l0 -142 -59 -12 c-129 -27
-237 -105 -287 -210 -25 -51 -28 -68 -28 -157 0 -93 2 -105 32 -168 43 -89 96
-150 343 -403 172 -175 211 -221 239 -278 41 -82 49 -151 26 -229 -38 -132
-155 -189 -342 -166 -93 11 -134 23 -193 55 -24 13 -45 24 -48 24 -12 0 -53
-112 -59 -161 -6 -56 -6 -56 29 -83 49 -38 118 -62 215 -77 l82 -12 2 -171 3
-171 50 -3 c56 -4 121 12 148 36 15 13 17 35 17 162 0 107 3 150 13 157 6 5
44 19 83 32 188 61 284 215 284 453 0 134 -23 212 -93 313 -11 17 -131 143
-267 280 -271 275 -294 308 -295 405 0 69 28 109 99 140 42 19 67 22 185 21
130 0 186 -9 286 -48 32 -12 85 140 64 180 -16 28 -104 65 -189 77 -41 6 -85
13 -97 16 -22 4 -23 7 -25 177 l-3 172 -40 2 c-22 1 -62 -4 -90 -11z"/>
<path d="M5605 6403 c-22 -3 -45 -9 -51 -14 -7 -6 -72 -121 -145 -257 -73
-136 -148 -274 -166 -307 -18 -33 -61 -113 -94 -177 -34 -65 -66 -115 -70
-112 -5 3 -9 199 -9 435 l0 430 -117 -3 -118 -3 -3 -1042 -2 -1043 101 0 c55
0 109 5 120 10 18 10 19 27 19 510 0 404 2 500 13 500 30 0 110 -64 153 -122
89 -121 159 -293 215 -528 16 -69 34 -141 38 -160 5 -19 15 -68 22 -108 7 -40
17 -79 23 -87 16 -21 226 -26 249 -6 25 20 21 80 -18 274 -81 402 -199 673
-371 848 l-65 66 217 374 c119 206 228 392 240 414 13 22 24 52 24 67 0 43
-62 55 -205 41z"/>
<path d="M6060 6402 c-14 -4 -30 -19 -37 -32 -17 -33 -19 -2010 -3 -2041 10
-18 23 -19 225 -19 119 0 238 5 267 11 226 48 362 241 429 611 31 175 40 709
14 892 -47 333 -163 503 -382 562 -64 17 -469 29 -513 16z m455 -252 c111 -58
157 -189 174 -494 10 -172 -2 -558 -19 -666 -41 -248 -91 -366 -176 -416 -39
-23 -57 -26 -137 -28 l-92 -1 -3 805 c-1 443 0 811 3 819 4 10 27 12 103 9 80
-3 108 -8 147 -28z"/>
<path d="M7495 5811 c-190 -47 -295 -166 -295 -332 0 -61 20 -136 49 -183 29
-45 124 -135 296 -278 207 -172 240 -220 233 -333 -5 -74 -25 -106 -92 -140
-45 -22 -62 -25 -160 -25 -93 0 -122 5 -181 26 -114 41 -110 41 -129 -5 -9
-23 -16 -63 -16 -89 0 -41 5 -53 33 -79 73 -71 284 -102 470 -68 155 27 271
107 325 223 25 52 27 67 27 182 0 117 -2 129 -29 183 -43 89 -115 163 -308
316 -97 77 -186 155 -199 172 -14 20 -24 52 -27 84 -4 44 -1 55 22 82 37 45
101 63 215 63 103 0 171 -14 239 -49 49 -25 62 -20 88 30 36 71 5 148 -77 189
-100 52 -341 67 -484 31z"/>
<path d="M832 5534 c-31 -37 -57 -108 -50 -140 3 -17 64 -46 463 -220 83 -36
154 -69 159 -74 5 -5 -39 -31 -100 -61 -348 -166 -490 -237 -502 -251 -31 -38
-3 -147 51 -196 20 -19 29 -21 43 -13 20 11 415 204 660 321 167 81 189 102
189 191 0 83 -26 132 -83 158 -135 60 -523 231 -526 231 -2 0 -37 15 -78 33
-116 53 -127 57 -163 57 -26 0 -40 -8 -63 -36z"/>
<path d="M1902 4175 c-7 -14 -12 -62 -12 -105 l0 -80 515 0 515 0 10 26 c6 14
10 61 10 105 l0 79 -513 0 -514 0 -11 -25z"/>
</g>
</svg>
